<svg xmlns="http://www.w3.org/2000/svg" xmlns:xlink="http://www.w3.org/1999/xlink" viewBox="0 0 500 382.97872"><defs><style>.cls-1{fill:url(#New_Gradient_Swatch);}.cls-2{fill:url(#New_Gradient_Swatch-2);}.cls-3{fill:url(#New_Gradient_Swatch-3);}.cls-4{fill:url(#linear-gradient);}.cls-5{fill:#ed1c24;}.cls-6{fill:url(#linear-gradient-2);}</style><linearGradient id="New_Gradient_Swatch" x1="394.82334" y1="67.38966" x2="394.82334" y2="154.58917" gradientUnits="userSpaceOnUse"><stop offset="0" stop-color="#ed1c24"/><stop offset="1" stop-color="#ff931e"/></linearGradient><linearGradient id="New_Gradient_Swatch-2" x1="324.36417" y1="239.16373" x2="428.92398" y2="239.16373" xlink:href="#New_Gradient_Swatch"/><linearGradient id="New_Gradient_Swatch-3" x1="105.30156" y1="67.38966" x2="105.30156" y2="154.58917" xlink:href="#New_Gradient_Swatch"/><linearGradient id="linear-gradient" x1="172.07005" y1="239.41369" x2="79.55454" y2="239.41369" xlink:href="#New_Gradient_Swatch"/><linearGradient id="linear-gradient-2" x1="249.08638" y1="17.83684" x2="249.08638" y2="160.04106" gradientUnits="userSpaceOnUse"><stop offset="0" stop-color="#ff931e"/><stop offset="1" stop-color="#ed1c24"/></linearGradient></defs><g id="Layer_2" data-name="Layer 2"><path class="cls-1" d="M395.57717,78.806c16.86552-1.054,33.59658,13.91359,34.05387,33.7397.43827,19.00314-15.20019,35.22153-33.37967,35.38414-19.93486.17834-36.19943-14.92275-36.24461-33.79836C359.95813,93.82682,375.49282,77.62457,395.57717,78.806Zm16.45862,33.92958c-.1531-9.45468-7.75569-16.59819-17.5227-16.46448A16.91782,16.91782,0,0,0,377.55093,114.01a17.25523,17.25523,0,0,0,34.48486-1.27435Z"/><path class="cls-2" d="M482.47993,243.23839c-3.06053-17.9316-8.786-34.671-19.9395-49.50409-12.25974-16.30417-28.566-25.48527-48.12786-29.12868-18.666-3.4766-37.11426-1.63981-55.12155,4.38062-11.966,4.00077-11.91608,1.48455-6.46022,15.25011,1.20073,3.02955,2.964,4.11655,6.33463,2.95018a146.42684,146.42684,0,0,1,14.48241-4.10274c16.64537-3.89931,33.32674-4.19755,49.44518,1.94245,19.10329,7.2769,30.5219,21.99281,37.03449,40.90382,1.967,5.71217,1.7117,6.18888-4.17208,6.29505-7.74523.13981-15.49455.12048-23.24142.06013-3.40582-.02649-4.99725,1.39424-4.91134,4.87227.09287,3.76523.14524,7.54784-.101,11.30212-.7953,12.10049-1.43351,24.22951-6.38781,35.61079-2.61992,6.01736-6.31785,11.74293-12.72448,12.98764-11.53929,2.24181-23.51347,2.09258-32.10064-7.538-5.90711-6.6253-11.47875-14.09765-15.056-22.14439-9.07442-20.41151-17.29339-41.22682-25.16708-62.13949-2.03409-5.40257-4.09067-10.77856-6.32481-16.06464L317.3587,207.38234q3.03272,6.79093,5.95416,13.62656c4.82133,11.342,8.53317,23.152,13.24159,34.54589,5.75328,13.92132,12.03186,27.55975,21.20528,39.76016,13.6012,18.08891,32.117,22.23153,53.0441,19.29445,6.61528-.92837,12.4017-4.32366,17.26681-9.50655,7.16184-7.62975,11.25128-16.62307,13.32914-26.56541,1.49038-7.13167,2.11222-14.44805,3.04622-21.69182.83458-6.47178,1.37583-7.033,7.74195-7.08626,3.97858-.03324,7.95715-.00613,11.93572-.0045,4.188.00164,8.37689.05227,12.5637-.01043C482.80108,249.65279,483.463,248.99617,482.47993,243.23839Z"/><path class="cls-3" d="M140.06485,113.22076c-.02048,19.03485-15.31379,34.6792-33.95367,34.733-20.12289.058-34.8868-15.19944-35.55863-35.21428-.52225-15.5583,13.305-34.125,34.41337-34.44346C124.69618,77.99835,140.0859,93.64235,140.06485,113.22076Zm-17.5385-.357c-.12621-9.20916-8.28142-17.37123-17.27541-17.28991-9.28471.08394-17.18317,8.51741-16.9704,18.1199a17.2957,17.2957,0,0,0,17.50524,16.77487C115.08445,130.372,122.65717,122.40829,122.52635,112.86378Z"/><path class="cls-4" d="M167.09749,196.3125c-6.585,16.055-11.56384,32.77853-18.37057,48.72924a341.39759,341.39759,0,0,1-19.66663,38.45981c-6.3514,10.8341-17.25535,14.76286-29.4304,15.01385a19.24475,19.24475,0,0,1-14.69352-5.93728,30.532,30.532,0,0,1-8.8265-17.0151c-1.74239-11.75489-2.97626-23.60491-3.88366-35.45645-.59034-7.70882-.16364-7.75321-7.63395-7.79-5.02548-.02485-10.05137-.04715-15.07685-.00685-13.69.10974-12.18405-.04234-7.60736-11.17427,8.90873-21.66819,24.52274-35.80184,48.01944-39.67967,15.28795-2.523,30.43066-.71594,45.25837,3.9617,10.67894,3.3689,10.73867,3.17846,14.64156-7.42777,1.87085-5.08521,1.904-5.17153-3.38823-7.19058a116.5113,116.5113,0,0,0-53.65777-7.34164c-24.41759,2.451-44.10877,13.68936-58.0978,34.142-9.902,14.4772-14.61947,30.89071-17.43168,47.98343-.53675,3.26172,1.06655,4.10653,3.8223,4.1098,7.11929.00828,14.24227-.10565,21.35747.07323,12.27.30847,11.74221-2.93013,13.60079,12.29686a133.83466,133.83466,0,0,0,6.569,27.95515c3.62961,10.32589,10.35329,19.064,21.13737,22.72543,18.59886,6.31458,36.00558,3.37882,51.10657-9.51022,11.273-9.6215,17.975-22.57385,23.62107-35.90463,7.75464-18.309,14.91648-36.86829,22.4592-55.26791L168.232,193.68828C167.85925,194.56489,167.45833,195.43261,167.09749,196.3125Z"/><path class="cls-5" d="M317.59008,264.60121c-.96006,19.657-4.97489,38.3911-14.86961,55.77985-22.18868,38.994-83.3094,39.55828-105.858-.87439-11.03806-19.79267-14.31054-41.258-14.61481-63.471-.04272-3.1167,1.19362-4.73683,4.40639-4.61574.41756.01576.83723-.02661,1.25494-.01262,13.955.46619,12.58247-2.70392,13.43833,12.47421.78419,13.90672,3.01791,27.45808,8.787,40.20452,12.06463,26.65605,44.57758,35.28549,66.637,17.79532,7.29-5.78,11.69573-13.57306,15.00909-22.038,5.2519-13.4175,6.92095-27.50574,7.46284-41.779.24959-6.573.23858-6.724,6.80851-6.627,12.09438.17853,13.04827-2.42178,11.60633,11.91059C317.61631,263.76378,317.6119,264.18338,317.59008,264.60121Z"/><path class="cls-5" d="M294.78063,77.71717a44.187,44.187,0,1,1-43.8895-44.46723C275.5699,33.32016,294.89982,52.9045,294.78063,77.71717ZM225.39282,77.149a25.23292,25.23292,0,1,0,50.46471.04314c-.033-14.23863-10.73425-24.8036-25.194-24.87312C236.45423,52.25068,225.46438,63.04886,225.39282,77.149Z"/><path class="cls-6" d="M317.65326,165.621c-9.56371-14.37892-22.70753-23.06826-39.97965-25.496a216.41373,216.41373,0,0,0-50.74042-.67135c-19.12292,1.81041-34.58515,10.11785-44.62957,26.64775A215.84793,215.84793,0,0,0,168.232,193.68828l12.6938,18.37231c1.10418-2.69387,2.192-5.3946,3.317-8.07978a259.56921,259.56921,0,0,1,12.72367-25.87392c7.24-13.0039,18.99446-19.28094,33.56484-19.816,12.94908-.47539,25.9407-.43018,38.89388-.01105,15.97484.517,28.10938,8.06024,35.29373,22.34353,4.43063,8.808,8.61581,17.74873,12.63979,26.759l12.58211-18.21082A141.6769,141.6769,0,0,0,317.65326,165.621Z"/></g></svg>